<svg width="600" height="264" viewBox="0 0 600 264" fill="none" xmlns="http://www.w3.org/2000/svg">
<path d="M564.394 105.813C549.83 96.6298 532.922 95.1752 516.569 97.7805C494.764 98.193 472.981 106.551 458.417 122.031C435.441 146.433 430.833 185.968 447.083 215.689C458.273 236.14 477.136 252.076 498.817 258.35C525.167 265.97 555.199 258.741 574.926 238.528C591.258 221.811 599.486 198.799 599.98 175.004C600.577 146.39 587.782 120.511 564.394 105.813Z" fill="#FF9737"/>
<path d="M494.452 163.481C494.452 162.279 494.269 160.913 494.485 159.726C494.532 159.468 495.174 159.13 494.913 158.869C494.693 158.649 494.147 160.068 495.045 160.516" stroke="#252525" stroke-width="12.4458" stroke-linecap="round"/>
<path d="M538.327 155.484C537.525 155.921 536.29 159.552 537.47 159.889C538.586 160.207 538.327 158.801 538.327 158.143" stroke="#252525" stroke-width="12.4458" stroke-linecap="round"/>
<path d="M534.177 188.395C534.177 184.921 529.078 184.534 526.37 183.947C515.351 181.558 506.793 183.222 494.868 183.947C486.601 183.222 484.571 203.909 489.082 211.43C492.767 217.575 502.95 220.153 509.274 221.612C517.414 223.492 522.984 224.408 529.829 218.844C535.101 214.559 538.285 209.932 540.106 203.554C541.331 199.266 542.478 192.887 539.513 189.12C536.95 185.863 534.177 184.243 530.619 182.464" stroke="#252525" stroke-width="12.4458" stroke-linecap="round"/>
<path d="M297.561 219.757C297.603 217.114 297.491 214.459 297.714 211.833C298.654 200.705 298.411 189.497 299.378 178.406C300.367 167.087 299.711 155.747 300.76 144.489C301.344 138.227 301.489 131.973 301.909 125.722C302.054 123.584 302.88 121.485 304.106 119.667C306.177 116.604 310.031 115.718 313.353 117.267C316.199 118.59 318.921 123.291 317.456 126.662C317.112 127.454 316.788 128.237 316.774 129.108C316.482 142.909 314.998 156.664 315.237 170.483C315.265 172.227 315.949 172.629 317.572 172.823C322.448 173.403 326.139 170.715 330.055 168.627C331.197 168.02 330.97 166.744 330.991 165.677C331.19 155.11 331.268 144.541 331.626 133.982C331.746 130.454 332.353 126.873 335.223 124.238C337.02 122.587 341.453 121.953 343.498 123.202C345.446 124.394 347.818 127.42 346.807 130.91C346.556 131.788 346.582 132.758 346.568 133.686C346.376 146.425 345.583 159.197 346.162 171.902C346.993 190.155 345.587 208.373 346.204 226.59C346.347 230.826 346.255 235.221 347.447 239.459C348.289 242.461 344.783 247.581 341.676 248.689C335.39 250.93 331.32 246.297 330.699 240.781C329.823 233.046 330.435 225.283 329.997 217.564C329.654 211.521 329.59 205.501 329.606 199.463C329.618 195.738 330.882 192.144 330.587 188.381C330.459 186.752 330.427 186.104 328.327 186.593C324.973 187.374 321.535 188.146 318.007 187.833C315.885 187.646 314.803 188.59 314.875 190.81C314.925 192.359 314.793 193.919 314.802 195.471C314.835 208.429 313.104 221.303 313.17 234.28C313.197 239.652 310.96 242.022 305.813 243.307C302.041 244.25 297.306 239.825 297.263 235.144C297.213 230.019 297.397 224.888 297.477 219.761L297.571 219.762L297.561 219.757Z" fill="#252525"/>
<path d="M171.341 188.646C171.574 191.927 171.096 195.37 171.912 198.87C172.741 202.436 168.338 207.389 164.167 208.265C161.039 208.924 157.107 205.836 155.978 202.107C155.397 200.2 155.277 198.324 155.303 196.38C155.451 186.129 155.99 175.862 155.583 165.63C155.13 154.153 155.688 142.678 155.094 131.237C154.83 126.141 155.303 120.968 154.365 115.965C153.742 112.649 154.54 110.181 156.769 108.048C160.489 104.489 166.584 106.31 167.983 111.307C169.068 115.189 169.868 119.137 169.548 123.179C169.228 127.244 170.396 131.175 170.31 135.202C170.289 136.241 170.816 136.776 171.869 136.798C173.034 136.816 174.198 136.862 175.363 136.885C181.723 137.028 187.891 138.351 194.078 139.703C197.705 140.497 201.336 141.081 204.669 142.858C207.71 144.482 209.682 147.959 209.14 151.037C208.541 154.427 205.414 157.399 201.938 157.619C200.921 157.682 199.804 157.263 198.832 156.838C191.524 153.622 183.763 152.516 175.906 151.865C175.366 151.819 174.816 151.769 174.301 151.63C171.123 150.759 170.981 150.855 170.94 154.067C170.919 156.006 170.902 157.95 170.899 159.89C170.894 163.2 172.062 164.477 175.328 164.879C183.138 165.836 190.855 167.371 198.493 169.193C201.985 170.027 205.347 171.683 206.258 175.969C206.918 179.089 205.001 183.027 201.971 183.953C200.228 184.49 198.589 184.693 196.602 184.228C189.335 182.528 182.165 180.247 174.646 179.788C174.268 179.763 173.874 179.645 173.532 179.477C171.835 178.634 171.48 179.556 171.462 180.997C171.432 183.481 171.384 185.966 171.342 188.632L171.341 188.646Z" fill="#252525"/>
<path d="M232.612 195.705C232.479 184.588 234.865 174.573 239.682 165.231C241.518 161.669 244.428 158.908 248.843 158.512C250.519 158.361 251.8 157.206 253.31 156.61C256.204 155.467 260.85 156.682 262.765 159.123C268.156 165.992 271.884 173.734 273.652 182.215C274.657 187.043 275.529 192.046 274.018 197.137C273.132 200.125 273.519 203.39 272.817 206.541C270.851 215.364 269.377 224.32 263.754 231.808C260.717 235.854 256.542 238.437 251.616 238.714C246.205 239.015 242.131 235.832 239.692 231.196C236.728 225.568 235.254 219.391 234.174 213.107C233.154 207.151 232.278 201.211 232.621 195.705L232.612 195.705ZM252.398 218.952C254.224 216.347 254.638 213.472 255.296 210.754C256.308 206.574 257.162 202.331 257.686 198.063C258.092 194.769 257.987 191.401 257.928 188.066C257.849 183.57 256.236 179.488 254.111 175.604C253.749 174.94 253.582 173.688 252.488 173.904C251.488 174.098 251.269 175.27 250.976 176.095C248.99 181.738 248.118 187.674 247.951 193.555C247.804 198.738 248.359 204.043 249.533 209.153C250.265 212.344 250.314 215.777 252.394 218.947L252.398 218.952Z" fill="#252525"/>
<path d="M46.3184 186.036C46.4273 179.124 46.7133 172.209 46.5938 165.297C46.4905 159.425 46.0704 153.549 45.804 147.679C45.6862 145.094 45.3892 142.348 44.461 139.736C43.2159 136.229 40.6113 134.994 37.3461 134.878C31.216 134.664 25.0816 134.726 18.9453 134.611C13.0932 134.5 9.97927 128.917 12.9753 123.938C13.7937 122.575 14.9674 121.74 16.5605 121.201C24.151 118.645 31.9598 119.397 39.6061 120.105C45.1908 120.622 50.4544 122.878 54.4178 127.496C57.681 131.3 59.2894 135.708 60.2356 140.437C61.4624 146.588 61.5641 152.851 62.0251 159.092C63.286 176.098 61.877 193.061 61.9591 210.043C61.9737 212.957 61.1353 215.593 58.6516 217.339C56.0784 219.145 53.3377 219.755 50.387 218.011C47.2285 216.143 46.0679 213.187 46.07 209.802C46.0735 201.88 46.2822 193.957 46.407 186.033C46.3791 186.033 46.3511 186.032 46.3232 186.032L46.3184 186.036Z" fill="#252525"/>
<path d="M154.414 259.948C145.938 258.654 137.222 257.243 130.793 250.269C125.784 244.838 124.895 238.548 127.001 231.532C128.407 226.849 130.639 222.739 133.621 218.926C134.715 217.53 136.033 216.441 137.531 215.724C140.386 214.356 142.184 211.489 145.469 210.65C147.963 210.013 150.238 209.951 152.414 211.198C156.636 213.619 161.228 215.258 165.387 217.832C174.619 223.545 178.693 231.796 177.821 242.436C177.544 245.817 175.874 248.882 173.775 251.665C168.962 258.056 162.054 259.341 154.41 259.943L154.414 259.948ZM153.932 243.799C154.939 243.815 155.949 243.873 156.952 243.837C160.808 243.707 162.26 242.107 161.998 238.298C161.877 236.529 161.056 235.08 159.94 233.739C157.41 230.701 153.757 229.459 150.415 227.732C147.567 226.261 145.436 226.927 143.721 229.604C142.455 231.579 141.693 233.773 141.001 235.972C140.324 238.129 141.238 240.177 143.258 241.243C146.59 243.002 150.161 243.847 153.933 243.79L153.932 243.799Z" fill="#252525"/>
<path d="M100.07 152.59C100.168 146.376 100.308 140.168 100.35 133.954C100.374 130.052 101.09 126.291 102.267 122.593C103.336 119.221 107.236 116.629 110.081 117.411C114.211 118.548 116.606 122.428 115.686 126.376C115.461 127.347 115.459 128.382 115.443 129.389C115.262 141.192 114.735 153.008 115.086 164.791C115.263 170.682 115.309 176.674 116.521 182.536C117.318 186.381 119.555 187.875 123.309 187.156C127.171 186.415 130.938 185.448 134.663 184.155C137.423 183.196 139.638 184.947 141.312 186.969C142.807 188.773 143.783 190.756 142.823 193.376C141.124 198.016 137.675 200.391 133.141 201.49C128.865 202.527 124.528 203.601 120.111 203.201C111.203 202.384 104.789 198.287 102.157 189.065C100.227 182.311 99.7014 175.412 99.7973 168.434C99.8712 163.152 99.9636 157.876 100.047 152.594L100.07 152.595L100.07 152.59Z" fill="#252525"/>
<path d="M413.572 127.855C412.341 132.614 413.094 138.967 412.265 145.155C411.742 149.092 411.819 153.037 411.264 156.926C410.07 165.277 409.463 173.66 408.827 182.061C408.526 186.057 408.495 190.094 407.962 194.067C407.456 197.817 406.018 201.194 402.118 202.61C398.631 203.879 393.141 203.233 391.897 197.605C391.453 195.598 390.956 193.743 391.887 191.744C392.191 191.087 392.102 190.213 392.072 189.439C391.816 182.907 392.948 176.463 393.585 170.011C394.139 164.42 395.029 158.848 395.695 153.259C396.639 145.352 397.663 137.475 397.887 129.5C397.948 127.375 398.472 125.192 399.179 123.175C400.433 119.6 404.203 116.979 406.906 117.595C411.466 118.632 414.252 121.091 413.568 127.85L413.572 127.855Z" fill="#252525"/>
<path d="M33.7875 234.45C38.8291 234.529 43.8826 234.446 48.9116 234.73C55.128 235.085 61.245 233.764 67.4463 233.894C69.0956 233.929 70.8372 233.435 72.4077 232.849C75.713 231.609 78.0044 233.198 79.964 235.425C81.8047 237.515 82.4392 239.842 81.1219 242.693C79.2065 246.827 75.9182 248.472 71.6933 249.208C66.1506 250.174 60.5903 249.881 55.025 249.91C41.4288 249.975 27.8512 249.155 14.2561 249.155C11.949 249.156 9.6748 249.144 7.34563 249.662C5.15675 250.15 3.04776 248.82 1.72367 247.074C-1.74155 242.488 1.1937 236.039 6.8803 234.818C9.97613 234.154 13.0144 234.183 16.0996 234.194C19.0496 234.208 21.9943 234.264 24.9437 234.311C27.8932 234.357 30.838 234.403 33.7875 234.45Z" fill="#252525"/>
<path d="M250.706 149.421C247.37 149.369 244.028 149.405 240.698 149.236C238.234 149.108 235.937 149.65 233.651 150.402C230.498 151.439 227.177 150.412 225.447 147.839C223.516 144.964 223.8 141.752 226.112 139.056C228.433 136.356 231.377 135.008 234.881 135.068C237.462 135.108 239.87 134.018 242.469 134.166C243.907 134.249 243.839 132.962 243.86 131.955C243.958 127.452 243.978 122.944 244.156 118.447C244.265 115.675 245.084 113.128 247.267 111.2C249.857 108.914 253.23 108.72 256.265 110.717C259.305 112.714 260.631 116.418 259.579 119.59C258.527 122.754 259.062 126.059 258.983 129.298C258.844 135.156 258.294 134.28 263.967 134.552C267.823 134.734 271.713 134.511 275.295 136.469C278.612 138.279 279.963 141.019 279.19 144.793C278.524 148.055 275.466 150.441 271.99 150.68C267.226 151.006 262.679 149.162 257.916 149.456C255.522 149.6 253.106 149.412 250.702 149.375L250.701 149.435L250.706 149.421Z" fill="#252525"/>
<path d="M383.021 235.973C382.584 231.155 387.969 226.875 391.258 226.093C394.584 225.296 397.687 225.63 400.046 227.98C401.808 229.737 403.118 232.061 404.229 234.331C406.157 238.263 405.103 243.646 402.103 246.793C399.791 249.218 396.836 250.701 393.625 250.1C388.876 249.204 385.252 246.392 384.011 241.472C383.55 239.642 382.595 237.822 383.025 235.978L383.021 235.973Z" fill="#252525"/>
<path d="M77.7121 14.7979L76.6965 14.9613C75.4942 16.6779 74.0235 23.8829 73.3931 28.5539C73.1013 30.901 72.4593 35.9924 72.4126 36.6113C72.3776 37.0551 72.3659 37.7791 72.3542 38.795" stroke="#FF9737" stroke-width="6.75283" stroke-linecap="round" stroke-linejoin="round"/>
<path d="M77.1755 24.8525L77.2339 24.0237C79.7436 25.226 82.3699 26.1014 84.9496 26.4866C85.6733 26.5917 96.3073 27.3854 96.9376 27.6072C97.2644 27.724 97.638 28.0041 98.0699 28.4593" stroke="#FF9737" stroke-width="6.75283" stroke-linecap="round" stroke-linejoin="round"/>
<path d="M90.0389 37.3115C88.8132 39.8105 88.2179 41.9124 88.0662 44.9135C87.8327 49.7597 88.4397 56.0071 88.428 56.2757C88.428 56.6377 88.3113 57.1982 88.1129 57.9689" stroke="#FF9737" stroke-width="6.75283" stroke-linecap="round" stroke-linejoin="round"/>
<path d="M73.9648 57.6653L71.7119 58.424C76.6612 60.315 83.3264 60.852 87.762 60.887H102.318" stroke="#FF9737" stroke-width="6.75283" stroke-linecap="round" stroke-linejoin="round"/>
<path d="M137.174 14.2729L136.952 12.3111L136.368 11.8557C135.154 13.9343 131.804 22.8559 129.878 27.9939C128.746 31.0184 128.431 32.2329 128.326 33.6108L128.758 33.7976" stroke="#FF9737" stroke-width="6.75283" stroke-linecap="round" stroke-linejoin="round"/>
<path d="M136.637 20.6947L136.683 19.6204C141.037 20.7414 151.263 23.3805 152.488 24.6066C152.839 24.9803 153.27 25.7977 153.772 27.0706" stroke="#FF9737" stroke-width="6.75283" stroke-linecap="round" stroke-linejoin="round"/>
<path d="M144.668 34.6265C143.325 36.3781 142.029 40.4652 141.633 46.082C141.458 48.581 141.201 51.3135 140.862 51.8857C140.687 52.1777 140.15 52.7732 139.286 53.649" stroke="#FF9737" stroke-width="6.75283" stroke-linecap="round" stroke-linejoin="round"/>
<path d="M127.532 54.9924L127.193 56.078L127.579 56.9768C130.193 57.8639 141.236 58.5526 143.384 58.6343C146.255 58.7394 153.702 58.7861 155.056 58.9028C155.617 58.9495 156.177 59.0779 156.761 59.2647" stroke="#FF9737" stroke-width="6.75283" stroke-linecap="round" stroke-linejoin="round"/>
<path d="M177.34 11.5869L176.651 10.8515L176.861 9.97607C180.095 9.97607 186.818 10.0111 190.309 10.0344C192.398 10.0578 193.577 10.1278 195.176 10.2912" stroke="#FF9737" stroke-width="6.75283" stroke-linecap="round" stroke-linejoin="round"/>
<path d="M180.013 25.5174H179.745C179.663 25.5174 179.464 25.5408 179.161 25.5758C183.468 26.2061 195.748 25.1906 196.67 25.1439C197.289 25.1089 198.619 25.0622 200.674 24.9805" stroke="#FF9737" stroke-width="6.75283" stroke-linecap="round" stroke-linejoin="round"/>
<path d="M188.592 36.2375C188.627 36.7513 187.973 42.6017 189.339 44.6453C190.296 45.9882 193.611 47.0158 195.491 46.5254C197.498 45.9298 200.078 43.2323 200.58 41.2705C200.954 39.5306 199.786 36.6462 198.28 35.7004C196.471 34.6494 192.246 34.5443 190.565 35.4902C189.876 35.8872 188.289 38.2694 187.53 39.3671" stroke="#FF9737" stroke-width="6.75283" stroke-linecap="round" stroke-linejoin="round"/>
<path d="M219.116 12.6607L218.953 11.5046C218.743 11.4112 218.614 12.9059 218.579 16.304C218.579 25.8445 218.614 40.1377 218.649 44.8904C218.637 49.2578 219.455 51.1495 219.945 51.5466" stroke="#FF9737" stroke-width="6.75283" stroke-linecap="round" stroke-linejoin="round"/>
<path d="M220.19 36.2373L218.918 36.3424L218.743 36.7159C220.155 37.3696 226.26 37.9065 230.894 37.5213C231.56 37.4629 232.482 37.3929 233.684 37.3112" stroke="#FF9737" stroke-width="6.75283" stroke-linecap="round" stroke-linejoin="round"/>
<path d="M251.252 16.4097L250.446 15.3938L250.715 14.3778C252.582 13.2918 263.917 10.6644 264.745 10.6761C265.166 10.6877 265.738 10.8746 266.461 11.2366" stroke="#FF9737" stroke-width="6.75283" stroke-linecap="round" stroke-linejoin="round"/>
<path d="M254.461 15.334L253.34 15.4975C252.103 16.7353 251.601 25.1314 252.535 28.2025C252.99 29.5805 254.496 30.9934 255.593 31.2036C257.344 31.4372 264.079 29.0783 267.359 27.9223C269.262 27.2216 270.488 26.8246 272.134 26.3458" stroke="#FF9737" stroke-width="6.75283" stroke-linecap="round" stroke-linejoin="round"/>
<path d="M249.115 50.1678L249.326 49.6308C250.376 49.0472 256.574 48.02 261.045 47.6348C262.971 47.4714 273.278 46.9344 277.924 46.9578H278.566" stroke="#FF9737" stroke-width="6.75283" stroke-linecap="round" stroke-linejoin="round"/>
<path d="M259.283 60.8887L258.699 59.1138L258.162 59.2773C257.765 60.5851 257.31 63.0607 257.252 65.0109C257.228 67.4748 258.302 71.4101 259.61 72.6246C260.94 73.804 264.29 74.9367 265.948 75.0068C271.399 75.0652 279.442 72.5078 280.119 72.2392C280.434 72.1224 280.761 71.9473 281.122 71.7254" stroke="#FF9737" stroke-width="6.75283" stroke-linecap="round" stroke-linejoin="round"/>
<path d="M327.849 7.83854L327.265 7.67506L326.775 6.8226C328.911 3.21428 337.934 3.8215 339.685 4.56886C340.129 6.98609 340.21 8.41074 339.767 9.48506C338.786 11.8205 333.545 20.1933 333.358 20.4852C333.113 20.9056 332.6 21.7814 331.841 23.1126" stroke="#FF9737" stroke-width="6.75283" stroke-linecap="round" stroke-linejoin="round"/>
<path d="M340.164 11.5874L339.954 11.6925L339.896 12.3931C340.503 13.4441 341.378 14.2849 343.187 15.4877C345.032 16.7372 346.724 18.0684 347.448 18.9325C347.658 19.1777 347.892 19.5631 348.172 20.0886" stroke="#FF9737" stroke-width="6.75283" stroke-linecap="round" stroke-linejoin="round"/>
<path d="M325.164 34.6265H323.962C323.869 34.6381 327.569 34.9885 333.884 35.257C342.44 35.549 353.973 35.6891 355.49 35.7008C355.525 35.7008 355.409 35.7008 355.374 35.7008C353.249 35.6891 351.977 35.6891 351.58 35.7008C349.829 35.7709 347.915 38.3282 347.611 41.2709C347.553 41.8314 347.471 42.6255 347.366 43.6531" stroke="#FF9737" stroke-width="6.75283" stroke-linecap="round" stroke-linejoin="round"/>
<path d="M339.627 52.3057C339.394 52.7027 336.931 57.5372 338.028 59.861C338.705 61.1689 341.518 62.5701 343.864 62.8154C346.187 63.0022 350.144 62.2549 351.837 61.309C353.319 60.4332 354.662 58.1327 354.463 56.7548C354.136 55.1083 351.51 51.9086 349.701 51.243C347.81 50.5891 344.74 51.0562 343.444 51.9554C341.973 53.053 341.121 53.9872 339.499 56.1242" stroke="#FF9737" stroke-width="6.75283" stroke-linecap="round" stroke-linejoin="round"/>
<path d="M374.984 18.0199L375.299 17.3196C376.898 17.0161 383.587 16.9577 385.851 16.946H390.007" stroke="#FF9737" stroke-width="6.75283" stroke-linecap="round" stroke-linejoin="round"/>
<path d="M377.119 18.0213L376.337 16.8652L375.567 16.7834C374.668 18.5 373.489 26.1604 373.477 27.9354C373.536 30.4928 374.376 33.0151 375.672 33.7157C377.329 34.5448 390.111 34.6266 391.045 34.6266" stroke="#FF9737" stroke-width="6.75283" stroke-linecap="round" stroke-linejoin="round"/>
<path d="M401.761 13.1979V12.8242C401.749 19.492 401.714 28.5537 401.761 29.4879C401.796 30.1185 401.89 31.5315 402.065 33.7035" stroke="#FF9737" stroke-width="6.75283" stroke-linecap="round" stroke-linejoin="round"/>
<path d="M405.507 23.3806L404.597 22.3534C406.149 22.33 409.406 22.295 411.11 22.295C413.62 22.295 415.137 22.2133 416.877 22.0032" stroke="#FF9737" stroke-width="6.75283" stroke-linecap="round" stroke-linejoin="round"/>
<path d="M418.897 9.97607L418.524 10.1396C418.36 11.9262 418.29 31.6261 418.022 40.4892C417.823 46.5381 417.847 48.1029 418.045 48.5583C418.127 48.7335 418.337 48.9087 418.664 49.0955" stroke="#FF9737" stroke-width="6.75283" stroke-linecap="round" stroke-linejoin="round"/>
<path d="M436.044 15.336L436.417 13.2458C438.005 12.6385 446.001 11.5876 450.985 10.5716C451.639 10.4315 452.689 10.2447 454.125 9.97607" stroke="#FF9737" stroke-width="6.75283" stroke-linecap="round" stroke-linejoin="round"/>
<path d="M443.001 23.9164L441.18 24.395C443.783 23.4378 445.756 22.8075 449.281 21.8386C454.884 20.2978 457.359 20.1928 458.269 20.3795L458.538 20.6947" stroke="#FF9737" stroke-width="6.75283" stroke-linecap="round" stroke-linejoin="round"/>
<path d="M448.896 33.0254C447.262 34.0413 444.519 38.7707 445.733 41.8652C446.387 43.3599 449.363 45.0531 451.418 45.1816C453.239 45.24 456.671 44.1306 457.791 43.1497C458.655 42.3206 459.799 39.5881 459.881 38.2685C459.904 36.552 458.69 33.8194 457.359 32.967C455.9 32.1029 451.978 32.1729 450.449 33.0254C449.795 33.3991 448.208 35.6178 447.449 36.622" stroke="#FF9737" stroke-width="6.75283" stroke-linecap="round" stroke-linejoin="round"/>
<path d="M477.821 14.2722C477.518 14.7043 477.342 15.4867 477.226 17.4602C477.027 21.9209 476.654 31.1695 476.479 35.9689C476.362 40.8384 476.222 47.2143 476.21 48.7207V49.0943" stroke="#FF9737" stroke-width="6.75283" stroke-linecap="round" stroke-linejoin="round"/>
<path d="M477.68 33.0255H477.225C478.287 32.9555 481.287 32.7571 482.688 32.6987C490.217 32.4419 491.092 32.3835 492.703 32.1968" stroke="#FF9737" stroke-width="6.75283" stroke-linecap="round" stroke-linejoin="round"/>
<path d="M512.63 12.1223C512.84 11.2118 514.836 9.70603 518.793 8.86559C521.583 8.28195 523.392 7.97845 524.583 7.89674C524.921 7.8734 525.505 7.85005 526.333 7.83838" stroke="#FF9737" stroke-width="6.75283" stroke-linecap="round" stroke-linejoin="round"/>
<path d="M513.166 9.97607C513.178 10.1045 510.33 11.6459 510.271 11.6927C509.291 12.5334 509.746 19.4114 511.182 21.6652C511.894 22.6928 513.703 23.6971 514.987 23.8022C516.75 23.8956 529.613 19.9953 530.839 19.6216" stroke="#FF9737" stroke-width="6.75283" stroke-linecap="round" stroke-linejoin="round"/>
<path d="M510.493 38.375L509.396 38.8886L509.151 39.3438C510.108 39.9041 517.742 40.1142 522.003 39.8808C523.695 39.7874 528.002 39.2271 529.018 39.1337C529.543 39.0754 530.559 39.0053 532.076 38.912" stroke="#FF9737" stroke-width="6.75283" stroke-linecap="round" stroke-linejoin="round"/>
<path d="M515.314 49.6313C513.773 50.3437 512.816 51.0443 512.524 51.9902C511.905 54.1622 512.944 61.5774 514.077 62.8152C515.407 64.123 520.648 64.088 529.45 63.726C531.376 63.6676 534.796 63.5742 535.928 63.5625H537.551" stroke="#FF9737" stroke-width="6.75283" stroke-linecap="round" stroke-linejoin="round"/>
</svg>
