<svg width="400" height="405" viewBox="0 0 400 405" fill="none" xmlns="http://www.w3.org/2000/svg">
<path d="M312.389 22.5904C276.555 0.00645368 234.95 -3.57067 194.712 2.83612C141.062 3.85053 87.4618 24.4057 51.6273 62.4727C-4.90818 122.483 -16.2457 219.706 23.7392 292.797C51.273 343.09 97.6858 382.278 151.033 397.708C215.869 416.448 289.765 398.669 338.303 348.963C378.491 307.853 398.736 251.26 399.951 192.744C401.419 122.376 369.937 58.7354 312.389 22.5904Z" fill="#FF9737"/>
<path d="M140.293 164.411C140.293 161.454 139.843 158.093 140.374 155.172C140.489 154.539 142.07 153.707 141.428 153.065C140.886 152.524 139.544 156.013 141.752 157.117" stroke="#252525" stroke-width="20" stroke-linecap="round"/>
<path d="M248.251 144.74C246.279 145.816 243.239 154.747 246.143 155.577C248.888 156.361 248.251 152.902 248.251 151.282" stroke="#252525" stroke-width="20" stroke-linecap="round"/>
<path d="M238.038 225.677C238.038 217.133 225.492 216.18 218.829 214.736C191.717 208.863 170.658 212.953 141.317 214.736C120.974 212.953 115.979 263.826 127.079 282.323C136.148 297.435 161.204 303.774 176.763 307.364C196.793 311.985 210.497 314.239 227.339 300.556C240.312 290.017 248.145 278.639 252.627 262.954C255.641 252.41 258.462 236.723 251.169 227.459C244.86 219.448 238.038 215.465 229.285 211.09" stroke="#252525" stroke-width="20" stroke-linecap="round"/>
</svg>
